# xmcd CD database file
#
# Track frame offsets:
#	150
#	24484
#	55588
#	69403
#	70386
#	90826
#	116109
#	140644
#
# Disc length: 2103 seconds
#
# Revision: 0
# Processed by: cddbd v1.5.1PL0 Copyright (c) Steve Scherf et al.
# Submitted via: CDex 1.51
#
DISCID=69083508
DTITLE=AFX - Hangable Auto Bulb
DYEAR=2005
DGENRE=Techno
TTITLE0=Children Talking
TTITLE1=Hangable Auto Bulb
TTITLE2=Laughable Butane Bob
TTITLE3=Bit
TTITLE4=Custodian Discount
TTITLE5=Wabby Legs
TTITLE6=Arched Maid Via RDJ
TTITLE7=Every Day
EXTD=YEAR: 2005
EXTT0=
EXTT1=
EXTT2=
EXTT3=
EXTT4=
EXTT5=
EXTT6=
EXTT7=
PLAYORDER=
